<svg xmlns="http://www.w3.org/2000/svg" data-name="3" viewBox="0 0 64 80" x="0px" y="0px"><title>Cbd</title><path d="M44.88013,13.377a1.50164,1.50164,0,0,0,1.5-1.5V8a1.50164,1.50164,0,0,0-1.5-1.5H19.11987a1.50164,1.50164,0,0,0-1.5,1.5v3.877a1.50164,1.50164,0,0,0,1.5,1.5h2.21534V16.5957H19.11987a1.50164,1.50164,0,0,0-1.5,1.5V56a1.50164,1.50164,0,0,0,1.5,1.5H44.88013a1.50164,1.50164,0,0,0,1.5-1.5V18.0957a1.50164,1.50164,0,0,0-1.5-1.5H42.66528V13.377Zm-26.26026-1.5V8a.50034.50034,0,0,1,.5-.5H44.88013a.50065.50065,0,0,1,.5.5v3.877a.50065.50065,0,0,1-.5.5H19.11987A.50034.50034,0,0,1,18.61987,11.877ZM36.49341,16.5957H32.50024V13.377h3.99317ZM27.50708,13.377h3.99316V16.5957H27.50708Zm-5.17187,0h4.17187V16.5957H22.33521ZM18.61987,23.90674H45.38013V48.11816H18.61987ZM44.88013,56.5H19.11987a.50034.50034,0,0,1-.5-.5V49.11816H45.38013V56A.50065.50065,0,0,1,44.88013,56.5Zm.5-38.4043v4.811H18.61987v-4.811a.50034.50034,0,0,1,.5-.5H44.88013A.50065.50065,0,0,1,45.38013,18.0957Zm-3.71485-1.5H37.49341V13.377h4.17187Zm1.96,19.8833-.60058-.32373a11.61266,11.61266,0,0,0-3.27149-1.17138,12.84666,12.84666,0,0,0,1.94239-5.06006l.10449-.67432-.67481.104a12.72293,12.72293,0,0,0-6.10839,2.707,13.8727,13.8727,0,0,0-2.62745-6.84717l-.40332-.55078-.40332.55078A13.8759,13.8759,0,0,0,28.95728,32.04a12.72846,12.72846,0,0,0-6.08155-2.68652l-.67431-.104.104.67432a12.85041,12.85041,0,0,0,1.94189,5.06006,11.60953,11.60953,0,0,0-3.271,1.17138l-.60108.32373.48975.47559a11.65179,11.65179,0,0,0,4.56006,2.73682,10.07078,10.07078,0,0,0-1.43652,2.42431l-.2627.63037.68018.06006q.457.04029.91064.04053a9.99418,9.99418,0,0,0,5.19775-1.45117c.17707-.10718.35682-.228.54-.3581v6.093h1.8628V41.01752c.19311.13788.38165.26513.56836.378A10.02312,10.02312,0,0,0,39.594,42.80615l.67969-.06006-.26172-.62988a10.02624,10.02624,0,0,0-1.43652-2.4248A11.64781,11.64781,0,0,0,43.136,36.9541ZM22.78735,53.50146h1v1h-1Zm0-2h1v1h-1Zm-2,2h1v1h-1Zm0-2h1v1h-1Z"/><text x="0" y="79" fill="#000000" font-size="5px" font-weight="bold" font-family="'Helvetica Neue', Helvetica, Arial-Unicode, Arial, Sans-serif">Created by Jajang Nurrahman</text><text x="0" y="84" fill="#000000" font-size="5px" font-weight="bold" font-family="'Helvetica Neue', Helvetica, Arial-Unicode, Arial, Sans-serif">from the Noun Project</text></svg>