<?xml version="1.0" standalone="no"?>
<!DOCTYPE svg PUBLIC "-//W3C//DTD SVG 20010904//EN"
 "http://www.w3.org/TR/2001/REC-SVG-20010904/DTD/svg10.dtd">
<svg version="1.0" xmlns="http://www.w3.org/2000/svg"
 width="504.000000pt" height="504.000000pt" viewBox="0 0 504.000000 504.000000"
 preserveAspectRatio="xMidYMid meet">

<g transform="translate(0.000000,504.000000) scale(0.100000,-0.100000)"
fill="#000000" stroke="none">
<path d="M1740 4710 l0 -240 -198 0 c-109 0 -225 -5 -257 -11 -197 -36 -359
-198 -394 -393 -8 -41 -11 -588 -11 -1755 0 -1863 -3 -1772 61 -1892 65 -121
172 -210 303 -252 l71 -22 1560 0 1560 0 3 1723 2 1722 -135 0 -135 0 -2 438
-3 437 -777 3 -778 2 0 240 c0 132 -3 240 -6 240 -4 0 -101 -49 -216 -110
-115 -60 -212 -110 -215 -110 -2 0 -99 50 -214 110 -115 61 -212 110 -214 110
-3 0 -5 -108 -5 -240z m604 1 c93 49 170 89 172 89 2 0 4 -173 4 -385 l0 -385
-345 0 -345 0 0 386 0 385 173 -89 172 -90 169 89z m-604 -511 l0 -170 -166 0
-165 0 3 -47 3 -48 850 0 850 0 0 45 0 45 -252 3 -253 2 0 170 0 170 730 0
730 0 0 -80 0 -80 -120 0 -120 0 0 -45 0 -45 120 0 120 0 0 -45 0 -45 -120 0
-120 0 0 -50 0 -50 120 0 120 0 0 -45 0 -45 -120 0 -120 0 0 -45 0 -45 120 0
120 0 0 -80 0 -80 -1402 2 -1403 3 -57 27 c-80 37 -152 107 -191 187 -30 61
-32 72 -32 171 0 93 3 112 27 162 47 100 138 181 241 213 29 10 110 14 265 14
l222 1 0 -170z m-579 -655 c39 -19 91 -37 115 -41 l44 -6 0 -1625 0 -1625 -32
6 c-88 17 -186 86 -240 168 -73 111 -68 -23 -68 1706 l0 1555 55 -52 c30 -29
86 -67 126 -86z m3179 -1680 l0 -1625 -1460 0 -1460 0 0 1625 0 1625 1460 0
1460 0 0 -1625z"/>
<path d="M2150 3180 l0 -50 625 0 625 0 0 50 0 50 -625 0 -625 0 0 -50z"/>
<path d="M2150 2900 l0 -50 625 0 625 0 0 50 0 50 -625 0 -625 0 0 -50z"/>
<path d="M2747 2468 c-92 -140 -149 -273 -176 -413 -7 -33 -14 -70 -17 -83
l-5 -23 -32 25 c-119 90 -303 164 -476 191 l-44 7 7 -50 c12 -95 47 -207 96
-310 27 -56 49 -106 50 -109 1 -4 -30 -15 -67 -26 -75 -20 -233 -92 -233 -106
0 -12 112 -109 172 -149 40 -27 186 -103 220 -114 6 -2 -6 -30 -26 -61 -43
-67 -99 -187 -91 -195 3 -3 60 -6 128 -6 148 0 249 24 380 89 l87 43 0 -244 0
-244 85 0 85 0 0 246 c0 135 3 244 8 242 226 -113 286 -130 459 -131 68 0 126
2 129 6 8 8 -56 145 -96 204 -17 25 -30 47 -28 48 2 1 35 16 73 32 39 16 102
50 140 74 73 47 185 144 185 160 0 14 -117 70 -210 100 -47 15 -85 31 -85 36
0 4 19 46 42 93 23 47 51 114 62 150 25 78 51 220 41 220 -4 0 -44 -7 -87 -15
-146 -28 -284 -85 -405 -167 l-58 -38 -5 27 c-37 199 -100 360 -196 498 -28
41 -53 75 -55 75 -1 0 -27 -37 -57 -82z m107 -166 c76 -152 116 -312 116 -468
0 -46 3 -84 6 -84 4 0 35 27 70 60 82 76 166 133 268 181 81 38 172 66 182 56
7 -7 -41 -148 -71 -207 -14 -27 -49 -85 -80 -129 -62 -92 -68 -81 59 -101 81
-13 196 -49 196 -62 0 -12 -131 -95 -196 -124 -31 -14 -90 -34 -132 -45 -43
-12 -79 -23 -81 -25 -2 -2 23 -32 55 -67 33 -36 69 -83 82 -106 l23 -41 -43 0
c-116 1 -286 64 -398 149 -48 37 -56 40 -65 25 -5 -9 -17 -26 -26 -38 -17 -21
-17 -20 -39 16 l-22 37 -51 -38 c-117 -87 -243 -137 -372 -148 l-77 -6 31 49
c16 27 55 77 85 110 l55 61 -72 18 c-118 28 -357 151 -342 176 10 15 162 58
230 65 36 4 68 10 71 15 2 4 -14 32 -36 61 -48 62 -132 229 -154 307 l-16 54
34 -6 c108 -17 293 -120 406 -224 43 -40 80 -73 83 -73 2 0 7 53 10 118 7 138
38 273 92 388 45 98 63 126 76 119 5 -4 25 -37 43 -73z"/>
<path d="M3890 595 l0 -45 45 0 45 0 0 45 0 45 -45 0 -45 0 0 -45z"/>
<path d="M4070 595 l0 -45 50 0 50 0 0 45 0 45 -50 0 -50 0 0 -45z"/>
<path d="M3890 405 l0 -45 45 0 45 0 0 45 0 45 -45 0 -45 0 0 -45z"/>
<path d="M4070 405 l0 -45 50 0 50 0 0 45 0 45 -50 0 -50 0 0 -45z"/>
</g>
</svg>
