<?xml version="1.0" standalone="no"?>
<!DOCTYPE svg PUBLIC "-//W3C//DTD SVG 20010904//EN"
 "http://www.w3.org/TR/2001/REC-SVG-20010904/DTD/svg10.dtd">
<svg version="1.0" xmlns="http://www.w3.org/2000/svg"
 width="16.000000pt" height="16.000000pt" viewBox="0 0 16.000000 16.000000"
 preserveAspectRatio="xMidYMid meet">

<g transform="translate(0.000000,16.000000) scale(0.100000,-0.100000)"
fill="#000000" stroke="none">
<path d="M49 145 c-38 -21 -52 -59 -35 -94 31 -59 101 -59 132 1 13 24 13 32
0 56 -8 15 -26 33 -41 40 -31 14 -24 14 -56 -3z m45 -11 c19 -7 22 -34 4 -34
-9 0 -9 -3 0 -12 26 -26 2 -75 -30 -63 -23 9 -16 115 7 115 2 0 10 -3 19 -6z"/>
</g>
</svg>
